# xmcd
#
# Track frame offsets:
#	150
#	11361
#	21989
#	32671
#	43272
#	54801
#	66831
#	76526
#	87573
#	99054
#	112506
#	124847
#	135945
#	147623
#	157878
#	169694
#	180954
#	193735
#	205569
#	216594
#	227379
#	237041
#	249136
#	260558
#
# Disc length: 3646 seconds
#
# Revision: 1
# Processed by: cddbd v1.5.1PL2 Copyright (c) Steve Scherf et al.
# Submitted via: audiograbber 1.83.01
#
DISCID=260e3c18
DTITLE=Various Artist - Hillbilly Bop, Boogie and the Honky Tonk Blues, v.2 - di
DTITLE=sc 1
DYEAR=1900
DGENRE=Country
TTITLE0=Mervin Shiner - Ball and Chain Boogie
TTITLE1=Louie Innes - Stomp that Thing
TTITLE2=Jimmie Davis - Fifteen Miles From Dallas
TTITLE3=Eddie Hill - Salty Dog Rag
TTITLE4=Okie Jones - Hillbilly Boogie
TTITLE5=Jack Rowe and his Wichita Mountain Boys - Bomb Bosh Boogie
TTITLE6=Jimmie Ballard - She's Got Something
TTITLE7=Curtis Kirk with Red Hayes' Fiddles - I Can't Take It With Me (When I L
TTITLE7=eave This World)
TTITLE8=Bobby Soots - Help Me Lose the Boogie Woogie Blues
TTITLE9=Neal Burris - The Sissy Song
TTITLE10=Johnny Hicks - Pick Up Blues
TTITLE11=Laura Lee and Dickie McBride - I Love You Boogie
TTITLE12=Leroy Jenkins - Hard Time, Hard Luck Blues
TTITLE13=Cliffie Stone and his Hometown Jamboree Gang - Dirty Dishes
TTITLE14=Tennessee Ernie and Ella Mae Morse - I'm Hog-Tied Over You
TTITLE15=Jimmie Osborne - Automobile Baby
TTITLE16=Ken Marvin - Tom Cattin' Around
TTITLE17=Boots Faye and Idaho Call - Grinnin' Like a Possum (Bawlin' Like a Hound
TTITLE17=)
TTITLE18=Lee Bell - Beatin' Out the Boogie (On the Mississippi Mud)
TTITLE19=Eddie Marshall and the Trail Dusters - Honky Tonk Blues
TTITLE20=Ken Marvin - How About a Date
TTITLE21=Joe Martin - Milk Cow Blues
TTITLE22=Jack Rhodes and his Lone Star Buddies - I've Lived a Lot In my Time
TTITLE23=Jack Rowe and his Wichita Mountain Boys - Hill Top Rag
EXTD=
EXTT0=
EXTT1=
EXTT2=
EXTT3=
EXTT4=
EXTT5=
EXTT6=
EXTT7=
EXTT8=
EXTT9=
EXTT10=
EXTT11=
EXTT12=
EXTT13=
EXTT14=
EXTT15=
EXTT16=
EXTT17=
EXTT18=
EXTT19=
EXTT20=
EXTT21=
EXTT22=
EXTT23=
PLAYORDER=
